<?xml version="1.0" standalone="no"?>
<!DOCTYPE svg PUBLIC "-//W3C//DTD SVG 20010904//EN"
 "http://www.w3.org/TR/2001/REC-SVG-20010904/DTD/svg10.dtd">
<svg version="1.0" xmlns="http://www.w3.org/2000/svg"
 width="600.000000pt" height="600.000000pt" viewBox="0 0 600.000000 600.000000"
 preserveAspectRatio="xMidYMid meet">
<metadata>
Created by potrace 1.11, written by Peter Selinger 2001-2013
</metadata>
<g transform="translate(0.000000,600.000000) scale(0.100000,-0.100000)"
fill="#000000" stroke="none">
<path d="M2738 5989 c-156 -17 -209 -26 -353 -56 -878 -183 -1658 -789 -2058
-1599 -169 -341 -259 -648 -304 -1039 -4 -38 -8 -167 -8 -285 0 -230 6 -324
30 -465 3 -16 8 -46 11 -65 15 -96 60 -276 99 -396 157 -483 423 -904 791
-1256 165 -157 411 -340 589 -438 270 -150 535 -252 810 -314 242 -55 389 -71
655 -71 241 0 382 12 585 50 149 28 447 119 563 171 29 13 55 24 58 24 10 0
221 107 294 150 440 255 815 622 1075 1050 191 315 349 738 391 1045 3 22 7
46 10 54 20 59 28 709 11 836 -12 88 -56 313 -72 365 -7 25 -25 86 -40 135
-138 463 -432 935 -799 1284 -33 31 -69 65 -81 76 -142 135 -433 330 -663 445
-171 85 -456 191 -609 225 -88 20 -279 55 -323 60 -30 3 -71 8 -90 11 -58 9
-500 11 -572 3z m532 -290 c194 -22 332 -48 491 -95 217 -63 412 -147 609
-261 85 -50 247 -157 260 -172 3 -3 23 -19 45 -35 89 -65 239 -206 350 -327
319 -350 552 -815 644 -1279 40 -207 46 -274 46 -530 0 -197 -6 -315 -20 -385
-3 -11 -7 -36 -10 -55 -58 -394 -266 -878 -511 -1190 -372 -472 -802 -777
-1350 -955 -119 -39 -296 -80 -409 -95 -44 -6 -93 -13 -110 -16 -54 -10 -478
-13 -555 -4 -130 16 -162 21 -263 40 -123 24 -293 72 -417 117 -103 38 -374
167 -430 205 -19 13 -56 36 -82 51 -69 40 -242 170 -327 246 -355 314 -605
677 -766 1111 -42 111 -104 333 -119 422 -3 18 -8 42 -10 54 -2 12 -7 45 -11
74 -4 29 -9 62 -12 74 -10 39 -11 501 -2 571 5 39 11 93 15 120 3 28 17 104
30 170 180 853 764 1572 1569 1928 142 63 370 139 490 163 132 26 245 45 315
52 111 12 445 12 540 1z"/>
<path d="M2535 4612 c-36 -102 -70 -158 -124 -209 -25 -23 -49 -43 -53 -43 -4
0 -13 -6 -20 -13 -7 -7 -40 -28 -73 -47 -59 -33 -149 -105 -223 -180 -30 -30
-52 -75 -121 -251 -46 -118 -89 -227 -96 -244 -7 -16 -25 -61 -40 -100 -15
-38 -33 -83 -40 -100 -7 -16 -82 -203 -165 -415 -84 -212 -161 -404 -171 -427
-11 -23 -19 -47 -19 -53 0 -5 -5 -18 -10 -28 -14 -24 -171 -424 -168 -427 2
-1 111 -36 243 -78 132 -41 299 -94 370 -117 72 -23 156 -50 188 -60 l59 -18
18 41 c9 23 64 151 120 285 57 133 105 240 108 238 23 -24 20 -510 -4 -656
-12 -72 -48 -248 -68 -333 -7 -31 -11 -58 -7 -58 21 -5 1544 -3 1546 1 2 3 -3
32 -11 65 -16 71 -17 72 -42 195 -34 160 -46 292 -46 480 0 101 11 311 17 316
1 1 47 -104 101 -234 55 -131 109 -260 122 -289 l22 -51 219 69 c120 39 297
95 393 126 96 30 191 60 210 65 19 6 36 11 38 13 1 1 -58 155 -132 341 -151
382 -491 1239 -597 1504 l-70 175 -92 83 c-51 46 -130 106 -177 133 -142 84
-198 150 -251 296 -12 32 -26 63 -31 68 -6 6 -170 10 -453 10 l-444 0 -26 -73z
m876 -82 c58 -143 122 -212 291 -315 43 -25 111 -78 152 -116 l75 -70 110
-277 c60 -152 227 -573 370 -934 143 -362 262 -662 263 -668 2 -7 -43 -26
-102 -45 -58 -18 -208 -66 -333 -106 -167 -54 -230 -70 -236 -61 -4 7 -85 197
-181 422 -95 226 -174 409 -175 408 -2 -2 -6 -32 -10 -68 -3 -36 -8 -81 -10
-100 -2 -19 -7 -64 -10 -100 -4 -36 -9 -78 -11 -95 -23 -165 -22 -527 0 -687
6 -38 18 -110 22 -128 1 -8 10 -46 18 -85 9 -38 16 -75 16 -80 0 -7 -221 -10
-647 -10 l-648 0 1 25 c1 14 11 70 22 125 25 120 29 146 39 250 13 142 7 489
-11 605 -2 14 -7 57 -10 95 -4 39 -9 86 -11 105 -3 19 -7 60 -10 89 -3 30 -7
56 -8 58 -2 1 -34 -71 -71 -160 -38 -89 -77 -181 -87 -204 -10 -22 -59 -137
-108 -253 -50 -117 -93 -215 -96 -218 -10 -10 -665 202 -665 216 0 12 413
1061 470 1192 27 65 270 679 270 685 0 2 19 22 43 43 23 22 58 54 77 71 19 18
67 51 105 74 143 84 229 166 273 263 17 39 32 76 32 82 0 6 6 15 14 19 8 5
181 8 385 8 l369 0 23 -55z"/>
<path d="M2681 4440 c-16 -36 -19 -60 -16 -120 16 -271 114 -503 278 -657 31
-29 60 -53 66 -53 6 0 32 37 59 83 101 172 212 428 266 614 l27 92 -23 43 -23
44 -307 -1 -307 0 -20 -45z"/>
<path d="M3416 4223 c-29 -94 -100 -270 -152 -378 -175 -366 -411 -663 -689
-867 -147 -109 -135 -91 -118 -178 8 -41 20 -104 27 -140 l12 -65 514 0 514 0
8 30 c4 17 16 82 27 145 12 63 23 124 25 135 3 11 15 65 27 120 27 126 121
493 189 739 51 186 52 189 35 225 -17 38 -54 67 -181 140 -64 36 -156 103
-192 138 -22 21 -27 16 -46 -44z"/>
<path d="M2513 4227 c-29 -23 -105 -74 -168 -112 -111 -66 -157 -104 -169
-143 -3 -9 17 -101 45 -202 28 -102 52 -193 54 -204 3 -10 12 -44 21 -75 9
-31 17 -63 19 -71 2 -8 20 -80 40 -160 19 -80 42 -171 50 -204 8 -32 16 -60
18 -62 1 -2 48 31 102 73 121 93 266 237 359 356 l69 88 -75 72 c-117 114
-193 233 -251 394 -24 67 -54 201 -59 266 -1 15 -3 27 -3 27 0 0 -24 -19 -52
-43z"/>
<path d="M1945 3387 c-88 -221 -230 -578 -316 -793 l-156 -392 231 -73 c127
-40 237 -74 243 -77 7 -2 17 7 23 20 5 12 89 209 185 436 l175 413 -36 152
c-47 203 -179 706 -187 714 -2 1 -74 -179 -162 -400z"/>
<path d="M3876 3653 c-86 -313 -178 -689 -179 -728 0 -11 9 -40 20 -65 11 -25
49 -112 83 -195 34 -82 71 -168 81 -190 10 -22 54 -125 98 -230 72 -173 82
-190 103 -187 12 1 122 35 244 74 l222 72 -24 55 c-23 55 -352 884 -481 1211
-70 179 -124 314 -128 318 -1 1 -19 -60 -39 -135z"/>
<path d="M2514 2443 c26 -198 27 -657 2 -734 -3 -8 -7 -34 -10 -59 -3 -25 -8
-56 -11 -70 -15 -73 -76 -65 517 -65 524 0 529 0 524 20 -5 20 -20 106 -30
175 -26 166 -26 472 0 718 l7 62 -107 0 c-58 0 -106 -2 -106 -5 0 -3 34 -49
75 -103 41 -54 75 -107 75 -118 0 -22 -41 -63 -134 -138 -44 -35 -64 -45 -80
-40 -25 8 -14 -8 -123 177 -48 81 -90 147 -93 147 -3 -1 -43 -67 -90 -148 -98
-170 -109 -183 -142 -174 -32 9 -186 140 -194 164 -6 22 6 44 84 143 31 39 60
76 65 83 7 9 -17 12 -113 12 l-123 0 7 -47z"/>
<path d="M2801 2385 c-44 -58 -81 -109 -80 -113 1 -14 61 -54 68 -46 5 5 20
29 33 54 14 25 46 80 72 123 25 43 46 80 46 82 0 3 -13 5 -29 5 -24 0 -40 -15
-110 -105z"/>
<path d="M3130 2438 c17 -29 52 -90 78 -135 26 -46 50 -83 54 -83 4 0 21 12
38 28 l29 27 -82 105 c-72 91 -87 105 -116 108 l-32 3 31 -53z"/>
</g>
</svg>
