<svg xmlns="http://www.w3.org/2000/svg" xmlns:xlink="http://www.w3.org/1999/xlink" xml:space="preserve" style="shape-rendering:geometricPrecision;text-rendering:geometricPrecision;image-rendering:optimizeQuality;" viewBox="0 0 10 12.5" x="0px" y="0px" fill-rule="evenodd" clip-rule="evenodd"><defs><style type="text/css">
   
    .fil0 {fill:black}
   
  </style></defs><path class="fil0" d="M5 0l7.87402e-006 0c2.75,0 5,2.25 5,5l0 7.87402e-006c0,2.75 -2.25,5 -5,5l-7.87402e-006 0c-2.75,0 -5,-2.25 -5,-5l0 -7.87402e-006c0,-2.75 2.25,-5 5,-5zm3.93701e-006 0.479996l3.93701e-006 0c2.486,0 4.52,2.034 4.52,4.52l0 3.93701e-006c0,2.486 -2.034,4.52 -4.52,4.52l-3.93701e-006 0c-2.486,0 -4.52,-2.034 -4.52,-4.52l0 -3.93701e-006c0,-2.486 2.034,-4.52 4.52,-4.52z"/><g><path class="fil0" d="M3.84816 6.02666l-0.411772 0.970736 -1.43828 -0.458161 1.29419 -3.25383 0.0235315 -0.0634016c0.00569685,-0.0153504 0.0121339,-0.0300433 0.0192402,-0.0441339l0.295654 -0.270697c0.0218898,-0.0127441 0.0439094,-0.025189 0.0657402,-0.0375787 0.114614,-0.0650315 0.231146,-0.131319 0.32474,-0.225606l0.0699409 -0.0704567 7.08661e-005 -0.00323228 0.0397283 -0.0718228c0.0161732,-0.0292323 0.0300551,-0.0596535 0.0418425,-0.0909055l0.0813543 -0.215701c0.501835,0 1.00444,0 1.49417,0l0.0813504 0.215709c0.0124764,0.0330827 0.0272992,0.0652283 0.0447008,0.0960197l0.0357087 0.0631969 0.0499016 0.0548268c0.0967047,0.106252 0.222421,0.17785 0.346008,0.247972 0.0219724,0.0124685 0.0441299,0.0249921 0.0661614,0.0378228l0.29837 0.276803c0.00587795,0.0121496 0.0112638,0.0247362 0.0161102,0.0378031l0.0160866 0.0433504 1.29888 3.27393 -1.43841 0.458209 -0.408713 -0.967965c-0.0479646,0.457394 -0.0456654,0.922866 0.0540118,1.37322l0.0897244 0.405366 -2.59347 0 0.0897205 -0.405366c0.0998858,-0.451299 0.101984,-0.91778 0.0537087,-1.3761zm0.0641575 1.6148l2.17829 0 -0.0448622 -0.202681c-0.10363,-0.468189 -0.106874,-0.95139 -0.0570394,-1.42662l0.0675079 -0.643764 0.601323 1.42413 1.12325 -0.357815 -1.23369 -3.10961 -0.0158622 -0.0427441 -0.258744 -0.240043c-0.0162165,-0.00932283 -0.0325,-0.0185354 -0.0487677,-0.0277638 -0.140768,-0.079878 -0.276528,-0.159358 -0.387012,-0.280744l-0.0625236 -0.0686969 -0.0449331 -0.0795236c-0.0215945,-0.0382126 -0.0400551,-0.0781339 -0.0555433,-0.119197l-0.0406732 -0.107854c-0.421213,0 -0.842425,0 -1.26364,0l-0.0406772 0.10785c-0.0146181,0.0387598 -0.0318898,0.0765079 -0.0519409,0.11276l-0.0198465 0.035878 -0.000629921 0.0286929 -0.116823 0.117689c-0.105756,0.106531 -0.231421,0.179744 -0.360768,0.253142 -0.0162913,0.00924409 -0.0325945,0.0184685 -0.0488307,0.0278031l-0.25689 0.235205c-0.000311024,0.000811024 -0.000614173,0.00162598 -0.000917323,0.00244094l-0.0242047 0.0652126 -1.22882 3.08949 1.1232 0.357795 0.604138 -1.42422 0.0675079 0.640933c0.0501575,0.476181 0.0471102,0.960409 -0.0567283,1.42957l-0.0448622 0.202685z"/><g><path class="fil0" d="M4.42262 2.65983c-0.00381102,0.169976 0.0132913,0.501976 0.16948,0.827398 0.086811,0.180858 0.217236,0.360154 0.412165,0.508571 0.355213,-0.550453 0.520169,-1.09383 0.579886,-1.32822 -0.0246417,-0.0436102 -0.0469685,-0.0909016 -0.0663819,-0.142378l-0.0560984 0 -0.0120748 0 -0.894508 0 -0.0143189 0 -0.0560984 0c-0.0182717,0.0484449 -0.039122,0.0931811 -0.0620512,0.13463z"/><path class="fil0" d="M5.08026 4.19189c-0.251417,0.365787 -0.585949,0.727209 -1.02689,1.00302 0.0328386,0.161177 0.0618307,0.321587 0.0857677,0.481106l1.72467 0c0.0974173,-0.649272 0.278689,-1.31344 0.4615,-1.9832 0.0152402,-0.0558307 0.0307205,-0.112543 0.0762244,-0.280953l-0.0274094 -0.0738622c-0.0218465,-0.058878 -0.116886,-0.112811 -0.232634,-0.178484 -0.135677,-0.0769882 -0.295083,-0.167461 -0.42802,-0.313516 -0.0888819,0.303752 -0.278244,0.829461 -0.633205,1.3459z"/><path class="fil0" d="M3.67763 3.69281c0.121224,0.444134 0.241776,0.885807 0.337642,1.32231 0.374878,-0.245685 0.666846,-0.557669 0.892358,-0.876311 -0.222882,-0.16763 -0.371681,-0.371547 -0.470508,-0.577453 -0.117488,-0.24478 -0.163398,-0.491701 -0.17935,-0.682531 -0.126173,0.127106 -0.271594,0.209638 -0.396807,0.280689 -0.115748,0.0656732 -0.210787,0.119606 -0.232634,0.178484l-0.0271339 0.0731063c0.0456654,0.168996 0.0611732,0.225795 0.0764331,0.281709z"/><path class="fil0" d="M3.49525 3.67706l-1.05525 2.6531 0.808142 0.257433 0.616764 -1.45398c-0.0975354,-0.459555 -0.224906,-0.926209 -0.353039,-1.39565l-0.0166142 -0.0608976z"/><path class="fil0" d="M6.138 5.13364l0.613902 1.45392 0.808094 -0.257421 -1.05242 -2.65271 -0.0165157 0.0605354c-0.128138,0.469453 -0.255512,0.936118 -0.353059,1.39568z"/><path class="fil0" d="M5.14748 5.84852l0.270705 0.460961 0.115193 -0.0964843 -0.278248 -0.358354c-0.00155118,-0.00199606 -0.003,-0.00403937 -0.00435039,-0.00612205l-0.103299 0z"/><path class="fil0" d="M4.78559 5.85464l-0.278252 0.358354 0.115197 0.0964843 0.270705 -0.460961 -0.103299 0c-0.00135039,0.00208268 -0.00280315,0.00412598 -0.00435039,0.00612205z"/><path class="fil0" d="M4.16303 5.84852c0.070374,0.555681 0.0734173,1.09974 -0.043122,1.62628l1.76312 0c-0.116543,-0.526535 -0.1135,-1.0706 -0.043122,-1.62628l-0.37126 0 0.251772 0.324252 6.69291e-005 0c0.0292126,0.037626 0.0223976,0.091815 -0.0152283,0.121028l-0.00137008 0.00103543 -0.252992 0.211894 9.44882e-005 0.000110236c-0.0365157,0.0305827 -0.0909213,0.0257717 -0.121504,-0.0107441 -0.00483465,-0.00577165 -0.00877953,-0.0119921 -0.0118622,-0.0184921l-0.29726 -0.506177 -0.297264 0.506177c-0.00307874,0.0065 -0.00702362,0.0127205 -0.0118583,0.0184921 -0.0305827,0.0365157 -0.0849882,0.0413268 -0.121504,0.0107441l9.05512e-005 -0.000110236 -0.252988 -0.211894 -0.00137008 -0.00103543c-0.037626,-0.0292126 -0.0444449,-0.0834016 -0.0152323,-0.121028l7.08661e-005 0 0.251768 -0.324252 -0.409043 0z"/></g></g><text x="0" y="25" fill="#000000" font-size="5px" font-weight="bold" font-family="'Helvetica Neue', Helvetica, Arial-Unicode, Arial, Sans-serif">Created by IYIKON</text><text x="0" y="30" fill="#000000" font-size="5px" font-weight="bold" font-family="'Helvetica Neue', Helvetica, Arial-Unicode, Arial, Sans-serif">from the Noun Project</text></svg>